<svg width="17" height="17" viewBox="0 0 17 17" xmlns="http://www.w3.org/2000/svg"><title>in</title><g fill="none" opacity=".75"><path d="M8.483.003c-2.302 0-2.592.01-3.497.05-.903.041-1.519.186-2.057.395a4.133 4.133 0 0 0-1.502.98c-.471.47-.76.945-.98 1.5-.208.54-.353 1.155-.393 2.06-.04.903-.05 1.193-.05 3.495 0 2.303.01 2.592.05 3.498.04.902.185 1.518.394 2.06.215.559.508 1.03.98 1.501.47.472.945.761 1.5.98.54.209 1.155.353 2.06.394.906.04 1.193.05 3.499.05 2.305 0 2.592-.01 3.497-.05.902-.04 1.518-.185 2.06-.394a4.133 4.133 0 0 0 1.502-.98c.471-.47.76-.946.98-1.501.208-.539.353-1.155.393-2.06.04-.906.05-1.192.05-3.498s-.01-2.592-.05-3.497c-.04-.903-.185-1.519-.394-2.06a4.133 4.133 0 0 0-.98-1.502 4.206 4.206 0 0 0-1.5-.98c-.54-.208-1.155-.353-2.06-.394-.91-.037-1.2-.047-3.502-.047z" fill="#787878"/><path d="M8.483 4.127a4.357 4.357 0 0 0 0 8.712 4.359 4.359 0 0 0 4.356-4.356 4.359 4.359 0 0 0-4.356-4.356zm0 7.184a2.827 2.827 0 1 1 0-5.655 2.827 2.827 0 0 1 0 5.655z" fill="#FFF"/><circle fill="#FFF" cx="13.011" cy="3.955" r="1.017"/></g></svg>